<?xml version="1.0" encoding="UTF-8"?>
<svg version="1.1" xmlns="http://www.w3.org/2000/svg" width="512" height="512">
<path d="M0 0 C0.75187088 -0.00686325 1.50374176 -0.0137265 2.27839661 -0.02079773 C4.7548836 -0.03904503 7.23073582 -0.0352313 9.70727539 -0.02954102 C11.4345368 -0.0341039 13.16179639 -0.0394098 14.88905334 -0.04542542 C18.50618879 -0.0543525 22.1231034 -0.05193812 25.74023438 -0.04199219 C30.36840832 -0.03050435 34.99581908 -0.05071284 39.62389278 -0.07990932 C43.19019894 -0.09828348 46.75632263 -0.09797644 50.32266426 -0.0922718 C52.02865227 -0.09211873 53.73465276 -0.09815159 55.44059563 -0.11056328 C57.82936915 -0.12549457 60.21673822 -0.11478188 62.60546875 -0.09765625 C63.30539948 -0.10732422 64.0053302 -0.11699219 64.72647095 -0.12695312 C69.72762448 -0.05213178 72.63865396 1.08402302 76.36743164 4.40405273 C79.50651742 9.79510711 79.80014242 14.49468153 79.75561523 20.54882812 C79.76087219 21.43754105 79.76612915 22.32625397 79.77154541 23.24189758 C79.78468491 26.16201665 79.77602954 29.08158495 79.76586914 32.00170898 C79.76789143 34.03999434 79.77080417 36.078279 79.77456665 38.11656189 C79.77898166 42.38083815 79.77258474 46.64492545 79.75854492 50.90917969 C79.74144275 56.3689453 79.75130611 61.82826878 79.76926231 67.28801823 C79.78011307 71.49425069 79.77664804 75.70037866 79.76887894 79.9066143 C79.76688107 81.91961151 79.76932165 83.93261828 79.7763176 85.94560432 C79.78395445 88.7602152 79.77229694 91.5741139 79.75561523 94.38867188 C79.76168793 95.21637085 79.76776062 96.04406982 79.77401733 96.89685059 C79.72015002 101.81419855 78.98183618 105.08750362 76.36743164 109.40405273 C75.70743164 109.40405273 75.04743164 109.40405273 74.36743164 109.40405273 C74.36743164 110.06405273 74.36743164 110.72405273 74.36743164 111.40405273 C73.70743164 111.40405273 73.04743164 111.40405273 72.36743164 111.40405273 C72.36743164 112.06405273 72.36743164 112.72405273 72.36743164 113.40405273 C71.70743164 113.40405273 71.04743164 113.40405273 70.36743164 113.40405273 C70.36743164 114.06405273 70.36743164 114.72405273 70.36743164 115.40405273 C69.70743164 115.40405273 69.04743164 115.40405273 68.36743164 115.40405273 C68.36743164 116.06405273 68.36743164 116.72405273 68.36743164 117.40405273 C67.70743164 117.40405273 67.04743164 117.40405273 66.36743164 117.40405273 C66.36743164 118.06405273 66.36743164 118.72405273 66.36743164 119.40405273 C65.70743164 119.40405273 65.04743164 119.40405273 64.36743164 119.40405273 C64.36743164 120.06405273 64.36743164 120.72405273 64.36743164 121.40405273 C63.70743164 121.40405273 63.04743164 121.40405273 62.36743164 121.40405273 C62.36743164 122.06405273 62.36743164 122.72405273 62.36743164 123.40405273 C61.70743164 123.40405273 61.04743164 123.40405273 60.36743164 123.40405273 C60.36743164 124.06405273 60.36743164 124.72405273 60.36743164 125.40405273 C59.70743164 125.40405273 59.04743164 125.40405273 58.36743164 125.40405273 C58.36743164 126.06405273 58.36743164 126.72405273 58.36743164 127.40405273 C57.70743164 127.40405273 57.04743164 127.40405273 56.36743164 127.40405273 C56.36743164 128.06405273 56.36743164 128.72405273 56.36743164 129.40405273 C55.70743164 129.40405273 55.04743164 129.40405273 54.36743164 129.40405273 C54.36743164 130.06405273 54.36743164 130.72405273 54.36743164 131.40405273 C53.70743164 131.40405273 53.04743164 131.40405273 52.36743164 131.40405273 C52.36743164 132.06405273 52.36743164 132.72405273 52.36743164 133.40405273 C51.70743164 133.40405273 51.04743164 133.40405273 50.36743164 133.40405273 C50.36743164 134.06405273 50.36743164 134.72405273 50.36743164 135.40405273 C49.70743164 135.40405273 49.04743164 135.40405273 48.36743164 135.40405273 C48.36743164 136.06405273 48.36743164 136.72405273 48.36743164 137.40405273 C47.70743164 137.40405273 47.04743164 137.40405273 46.36743164 137.40405273 C46.36743164 138.06405273 46.36743164 138.72405273 46.36743164 139.40405273 C45.70743164 139.40405273 45.04743164 139.40405273 44.36743164 139.40405273 C44.36743164 140.06405273 44.36743164 140.72405273 44.36743164 141.40405273 C43.70743164 141.40405273 43.04743164 141.40405273 42.36743164 141.40405273 C42.36743164 142.06405273 42.36743164 142.72405273 42.36743164 143.40405273 C41.70743164 143.40405273 41.04743164 143.40405273 40.36743164 143.40405273 C40.36743164 144.06405273 40.36743164 144.72405273 40.36743164 145.40405273 C39.70743164 145.40405273 39.04743164 145.40405273 38.36743164 145.40405273 C38.36743164 146.06405273 38.36743164 146.72405273 38.36743164 147.40405273 C37.70743164 147.40405273 37.04743164 147.40405273 36.36743164 147.40405273 C36.36743164 148.06405273 36.36743164 148.72405273 36.36743164 149.40405273 C35.70743164 149.40405273 35.04743164 149.40405273 34.36743164 149.40405273 C34.03743164 150.39405273 33.70743164 151.38405273 33.36743164 152.40405273 C28.49103824 151.97352431 26.39756169 149.91812777 23.05493164 146.46655273 C21.73041992 145.12270508 21.73041992 145.12270508 20.37915039 143.75170898 C18.36743164 141.40405273 18.36743164 141.40405273 18.36743164 139.40405273 C17.83118164 139.19780273 17.29493164 138.99155273 16.74243164 138.77905273 C13.44765155 136.87154847 10.77379536 134.35585889 8.36743164 131.40405273 C8.36743164 130.74405273 8.36743164 130.08405273 8.36743164 129.40405273 C7.70743164 129.40405273 7.04743164 129.40405273 6.36743164 129.40405273 C6.36743164 128.74405273 6.36743164 128.08405273 6.36743164 127.40405273 C5.70743164 127.40405273 5.04743164 127.40405273 4.36743164 127.40405273 C4.36743164 126.74405273 4.36743164 126.08405273 4.36743164 125.40405273 C3.70743164 125.40405273 3.04743164 125.40405273 2.36743164 125.40405273 C2.36743164 124.74405273 2.36743164 124.08405273 2.36743164 123.40405273 C1.70743164 123.40405273 1.04743164 123.40405273 0.36743164 123.40405273 C0.36743164 122.74405273 0.36743164 122.08405273 0.36743164 121.40405273 C-0.29256836 121.40405273 -0.95256836 121.40405273 -1.63256836 121.40405273 C-1.63256836 120.74405273 -1.63256836 120.08405273 -1.63256836 119.40405273 C-2.29256836 119.40405273 -2.95256836 119.40405273 -3.63256836 119.40405273 C-3.63256836 118.74405273 -3.63256836 118.08405273 -3.63256836 117.40405273 C-4.29256836 117.40405273 -4.95256836 117.40405273 -5.63256836 117.40405273 C-5.63256836 116.74405273 -5.63256836 116.08405273 -5.63256836 115.40405273 C-6.29256836 115.40405273 -6.95256836 115.40405273 -7.63256836 115.40405273 C-7.63256836 114.74405273 -7.63256836 114.08405273 -7.63256836 113.40405273 C-8.29256836 113.40405273 -8.95256836 113.40405273 -9.63256836 113.40405273 C-9.63256836 112.74405273 -9.63256836 112.08405273 -9.63256836 111.40405273 C-10.29256836 111.40405273 -10.95256836 111.40405273 -11.63256836 111.40405273 C-11.63256836 110.74405273 -11.63256836 110.08405273 -11.63256836 109.40405273 C-12.29256836 109.40405273 -12.95256836 109.40405273 -13.63256836 109.40405273 C-16.78192486 104.21301881 -17.0682521 100.17843806 -17.03662109 94.296875 C-17.04348434 93.40016083 -17.0503476 92.50344666 -17.05741882 91.57955933 C-17.07566431 88.62636311 -17.0718525 85.67369927 -17.06616211 82.72045898 C-17.07072498 80.66071907 -17.07603087 78.60098069 -17.08204651 76.54124451 C-17.0909732 72.22811695 -17.08855945 67.91517459 -17.07861328 63.60205078 C-17.06712427 58.0828533 -17.08733658 52.56429567 -17.11653042 47.04518223 C-17.13490226 42.79257669 -17.13459797 38.54012421 -17.1288929 34.28748894 C-17.12873981 32.25298096 -17.13477423 30.21846252 -17.14718437 28.18399239 C-17.16211096 25.33579835 -17.15140492 22.4887829 -17.13427734 19.640625 C-17.14394531 18.80559952 -17.15361328 17.97057404 -17.16357422 17.11024475 C-17.09205196 11.41219508 -16.02788566 8.03338255 -12.63256836 3.40405273 C-8.70708673 0.10154212 -4.94262539 -0.03169713 0 0 Z M11.36743164 125.40405273 C13.20129087 129.07177119 14.61805993 130.8724027 17.49243164 133.65405273 C18.21688477 134.36045898 18.94133789 135.06686523 19.68774414 135.79467773 C20.24204102 136.32577148 20.79633789 136.85686523 21.36743164 137.40405273 C22.62769962 134.88351678 22.2861761 133.54984294 21.92993164 130.77905273 C21.74430664 129.33530273 21.55868164 127.89155273 21.36743164 126.40405273 C18.06743164 126.07405273 14.76743164 125.74405273 11.36743164 125.40405273 Z M41.36743164 126.40405273 C41.03743164 130.03405273 40.70743164 133.66405273 40.36743164 137.40405273 C46.10529424 132.65510616 46.10529424 132.65510616 51.36743164 127.40405273 C51.36743164 126.74405273 51.36743164 126.08405273 51.36743164 125.40405273 C47.95643996 125.40405273 44.7365485 125.89550679 41.36743164 126.40405273 Z M36.36743164 139.40405273 C36.03743164 139.73405273 35.70743164 140.06405273 35.36743164 140.40405273 C33.68134198 140.47610785 31.99242505 140.48791341 30.30493164 140.46655273 C29.38583008 140.4575293 28.46672852 140.44850586 27.51977539 140.43920898 C26.80950195 140.42760742 26.09922852 140.41600586 25.36743164 140.40405273 C27.01743164 142.38405273 28.66743164 144.36405273 30.36743164 146.40405273 C34.16264474 144.91307616 35.97785895 142.64704424 38.36743164 139.40405273 C37.70743164 139.40405273 37.04743164 139.40405273 36.36743164 139.40405273 Z " fill="#EDA03E" transform="translate(224.632568359375,155.595947265625)"/>
<path d="M0 0 C0.75187088 -0.00686325 1.50374176 -0.0137265 2.27839661 -0.02079773 C4.7548836 -0.03904503 7.23073582 -0.0352313 9.70727539 -0.02954102 C11.4345368 -0.0341039 13.16179639 -0.0394098 14.88905334 -0.04542542 C18.50618879 -0.0543525 22.1231034 -0.05193812 25.74023438 -0.04199219 C30.36840832 -0.03050435 34.99581908 -0.05071284 39.62389278 -0.07990932 C43.19019894 -0.09828348 46.75632263 -0.09797644 50.32266426 -0.0922718 C52.02865227 -0.09211873 53.73465276 -0.09815159 55.44059563 -0.11056328 C57.82936915 -0.12549457 60.21673822 -0.11478188 62.60546875 -0.09765625 C63.30539948 -0.10732422 64.0053302 -0.11699219 64.72647095 -0.12695312 C69.72762448 -0.05213178 72.63865396 1.08402302 76.36743164 4.40405273 C79.50651742 9.79510711 79.80014242 14.49468153 79.75561523 20.54882812 C79.76087219 21.43754105 79.76612915 22.32625397 79.77154541 23.24189758 C79.78468491 26.16201665 79.77602954 29.08158495 79.76586914 32.00170898 C79.76789143 34.03999434 79.77080417 36.078279 79.77456665 38.11656189 C79.77898166 42.38083815 79.77258474 46.64492545 79.75854492 50.90917969 C79.74144275 56.3689453 79.75130611 61.82826878 79.76926231 67.28801823 C79.78011307 71.49425069 79.77664804 75.70037866 79.76887894 79.9066143 C79.76688107 81.91961151 79.76932165 83.93261828 79.7763176 85.94560432 C79.78395445 88.7602152 79.77229694 91.5741139 79.75561523 94.38867188 C79.76168793 95.21637085 79.76776062 96.04406982 79.77401733 96.89685059 C79.72015002 101.81419855 78.98183618 105.08750362 76.36743164 109.40405273 C75.70743164 109.40405273 75.04743164 109.40405273 74.36743164 109.40405273 C74.36743164 110.06405273 74.36743164 110.72405273 74.36743164 111.40405273 C73.70743164 111.40405273 73.04743164 111.40405273 72.36743164 111.40405273 C72.36743164 112.06405273 72.36743164 112.72405273 72.36743164 113.40405273 C71.70743164 113.40405273 71.04743164 113.40405273 70.36743164 113.40405273 C70.36743164 114.06405273 70.36743164 114.72405273 70.36743164 115.40405273 C69.70743164 115.40405273 69.04743164 115.40405273 68.36743164 115.40405273 C68.36743164 116.06405273 68.36743164 116.72405273 68.36743164 117.40405273 C67.70743164 117.40405273 67.04743164 117.40405273 66.36743164 117.40405273 C66.36743164 118.06405273 66.36743164 118.72405273 66.36743164 119.40405273 C65.70743164 119.40405273 65.04743164 119.40405273 64.36743164 119.40405273 C64.36743164 120.06405273 64.36743164 120.72405273 64.36743164 121.40405273 C63.70743164 121.40405273 63.04743164 121.40405273 62.36743164 121.40405273 C62.36743164 122.06405273 62.36743164 122.72405273 62.36743164 123.40405273 C61.70743164 123.40405273 61.04743164 123.40405273 60.36743164 123.40405273 C60.36743164 124.06405273 60.36743164 124.72405273 60.36743164 125.40405273 C59.70743164 125.40405273 59.04743164 125.40405273 58.36743164 125.40405273 C58.36743164 126.06405273 58.36743164 126.72405273 58.36743164 127.40405273 C57.70743164 127.40405273 57.04743164 127.40405273 56.36743164 127.40405273 C56.36743164 128.06405273 56.36743164 128.72405273 56.36743164 129.40405273 C55.70743164 129.40405273 55.04743164 129.40405273 54.36743164 129.40405273 C54.36743164 130.06405273 54.36743164 130.72405273 54.36743164 131.40405273 C53.70743164 131.40405273 53.04743164 131.40405273 52.36743164 131.40405273 C52.36743164 132.06405273 52.36743164 132.72405273 52.36743164 133.40405273 C51.70743164 133.40405273 51.04743164 133.40405273 50.36743164 133.40405273 C50.36743164 134.06405273 50.36743164 134.72405273 50.36743164 135.40405273 C49.70743164 135.40405273 49.04743164 135.40405273 48.36743164 135.40405273 C48.36743164 136.06405273 48.36743164 136.72405273 48.36743164 137.40405273 C47.70743164 137.40405273 47.04743164 137.40405273 46.36743164 137.40405273 C46.36743164 138.06405273 46.36743164 138.72405273 46.36743164 139.40405273 C45.70743164 139.40405273 45.04743164 139.40405273 44.36743164 139.40405273 C44.36743164 140.06405273 44.36743164 140.72405273 44.36743164 141.40405273 C43.70743164 141.40405273 43.04743164 141.40405273 42.36743164 141.40405273 C42.36743164 142.06405273 42.36743164 142.72405273 42.36743164 143.40405273 C41.70743164 143.40405273 41.04743164 143.40405273 40.36743164 143.40405273 C40.36743164 144.06405273 40.36743164 144.72405273 40.36743164 145.40405273 C39.70743164 145.40405273 39.04743164 145.40405273 38.36743164 145.40405273 C38.36743164 146.06405273 38.36743164 146.72405273 38.36743164 147.40405273 C37.70743164 147.40405273 37.04743164 147.40405273 36.36743164 147.40405273 C36.36743164 148.06405273 36.36743164 148.72405273 36.36743164 149.40405273 C35.70743164 149.40405273 35.04743164 149.40405273 34.36743164 149.40405273 C34.03743164 150.39405273 33.70743164 151.38405273 33.36743164 152.40405273 C28.49103824 151.97352431 26.39756169 149.91812777 23.05493164 146.46655273 C21.73041992 145.12270508 21.73041992 145.12270508 20.37915039 143.75170898 C18.36743164 141.40405273 18.36743164 141.40405273 18.36743164 139.40405273 C17.83118164 139.19780273 17.29493164 138.99155273 16.74243164 138.77905273 C13.44765155 136.87154847 10.77379536 134.35585889 8.36743164 131.40405273 C8.36743164 130.74405273 8.36743164 130.08405273 8.36743164 129.40405273 C7.70743164 129.40405273 7.04743164 129.40405273 6.36743164 129.40405273 C6.36743164 128.74405273 6.36743164 128.08405273 6.36743164 127.40405273 C5.70743164 127.40405273 5.04743164 127.40405273 4.36743164 127.40405273 C4.36743164 126.74405273 4.36743164 126.08405273 4.36743164 125.40405273 C3.70743164 125.40405273 3.04743164 125.40405273 2.36743164 125.40405273 C2.36743164 124.74405273 2.36743164 124.08405273 2.36743164 123.40405273 C1.70743164 123.40405273 1.04743164 123.40405273 0.36743164 123.40405273 C0.36743164 122.74405273 0.36743164 122.08405273 0.36743164 121.40405273 C-0.29256836 121.40405273 -0.95256836 121.40405273 -1.63256836 121.40405273 C-1.63256836 120.74405273 -1.63256836 120.08405273 -1.63256836 119.40405273 C-2.29256836 119.40405273 -2.95256836 119.40405273 -3.63256836 119.40405273 C-3.63256836 118.74405273 -3.63256836 118.08405273 -3.63256836 117.40405273 C-4.29256836 117.40405273 -4.95256836 117.40405273 -5.63256836 117.40405273 C-5.63256836 116.74405273 -5.63256836 116.08405273 -5.63256836 115.40405273 C-6.29256836 115.40405273 -6.95256836 115.40405273 -7.63256836 115.40405273 C-7.63256836 114.74405273 -7.63256836 114.08405273 -7.63256836 113.40405273 C-8.29256836 113.40405273 -8.95256836 113.40405273 -9.63256836 113.40405273 C-9.63256836 112.74405273 -9.63256836 112.08405273 -9.63256836 111.40405273 C-10.29256836 111.40405273 -10.95256836 111.40405273 -11.63256836 111.40405273 C-11.63256836 110.74405273 -11.63256836 110.08405273 -11.63256836 109.40405273 C-12.29256836 109.40405273 -12.95256836 109.40405273 -13.63256836 109.40405273 C-16.78192486 104.21301881 -17.0682521 100.17843806 -17.03662109 94.296875 C-17.04348434 93.40016083 -17.0503476 92.50344666 -17.05741882 91.57955933 C-17.07566431 88.62636311 -17.0718525 85.67369927 -17.06616211 82.72045898 C-17.07072498 80.66071907 -17.07603087 78.60098069 -17.08204651 76.54124451 C-17.0909732 72.22811695 -17.08855945 67.91517459 -17.07861328 63.60205078 C-17.06712427 58.0828533 -17.08733658 52.56429567 -17.11653042 47.04518223 C-17.13490226 42.79257669 -17.13459797 38.54012421 -17.1288929 34.28748894 C-17.12873981 32.25298096 -17.13477423 30.21846252 -17.14718437 28.18399239 C-17.16211096 25.33579835 -17.15140492 22.4887829 -17.13427734 19.640625 C-17.14394531 18.80559952 -17.15361328 17.97057404 -17.16357422 17.11024475 C-17.09205196 11.41219508 -16.02788566 8.03338255 -12.63256836 3.40405273 C-8.70708673 0.10154212 -4.94262539 -0.03169713 0 0 Z M-10.55726624 6.3828125 C-13.36176193 10.46561814 -13.42642922 13.55083454 -13.48583984 18.40673828 C-13.51548325 19.30514435 -13.54512665 20.20355042 -13.57566833 21.12918091 C-13.66392181 24.0998063 -13.712676 27.06913676 -13.75366211 30.04077148 C-13.77154345 31.06181284 -13.78942478 32.08285419 -13.80784798 33.1348362 C-13.90038432 38.55017481 -13.96173403 43.9648671 -13.99853516 49.38085938 C-14.03377053 53.83428642 -14.12376687 58.28111771 -14.26513672 62.73242188 C-16.45128747 89.95634733 -16.45128747 89.95634733 -6.56031799 114.08149719 C-0.01342222 120.23749031 5.85476242 123.5903657 14.99243164 123.52905273 C17.52035759 123.30599994 19.87499307 122.91516039 22.36743164 122.40405273 C22.42278076 121.65196533 22.47812988 120.89987793 22.53515625 120.125 C22.78702881 116.73848044 23.04588503 113.35253075 23.30493164 109.96655273 C23.39194336 108.78254883 23.47895508 107.59854492 23.56860352 106.37866211 C23.65561523 105.25395508 23.74262695 104.12924805 23.83227539 102.97045898 C23.91082764 101.92833252 23.98937988 100.88620605 24.0703125 99.8125 C24.36743164 97.40405273 24.36743164 97.40405273 25.36743164 96.40405273 C25.45518769 94.25846447 25.47438383 92.11000852 25.46508789 89.96264648 C25.46186523 88.6574707 25.45864258 87.35229492 25.45532227 86.00756836 C25.44696565 84.61889584 25.43850069 83.23022396 25.42993164 81.84155273 C25.4249183 80.44897618 25.42035511 79.05639792 25.41625977 77.66381836 C25.40442598 74.24385403 25.38794044 70.82397429 25.36743164 67.40405273 C24.53598633 67.00573242 23.70454102 66.60741211 22.84790039 66.19702148 C21.7612207 65.6672168 20.67454102 65.13741211 19.55493164 64.59155273 C18.47598633 64.06948242 17.39704102 63.54741211 16.28540039 63.00952148 C13.77455136 61.62805033 12.09828516 60.64999774 10.36743164 58.40405273 C9.83042207 55.93018841 9.47943063 53.65922199 9.24243164 51.15405273 C9.16822998 50.42476562 9.09402832 49.69547852 9.01757812 48.9440918 C8.77802078 46.43225869 8.57077155 43.91907041 8.36743164 41.40405273 C8.28154785 40.42436523 8.19566406 39.44467773 8.10717773 38.43530273 C7.84802269 35.34301205 7.63272859 32.25051168 7.42993164 29.15405273 C7.34791504 28.16630859 7.26589844 27.17856445 7.18139648 26.16088867 C6.80182193 19.16466683 6.80182193 19.16466683 9.64477539 15.34155273 C18.47293265 9.05924857 27.88423527 8.75313531 38.36743164 9.40405273 C43.71486746 10.42697911 49.02882004 12.01451242 53.36743164 15.40405273 C55.28829327 18.47509086 55.58341692 20.67636507 55.41430664 24.26342773 C55.37345947 25.20718262 55.3326123 26.1509375 55.29052734 27.12329102 C55.23340576 28.12344238 55.17628418 29.12359375 55.11743164 30.15405273 C55.06224365 31.17869629 55.00705566 32.20333984 54.95019531 33.2590332 C54.7739252 36.30881621 54.57424626 39.3562048 54.36743164 42.40405273 C54.31603027 43.24935547 54.26462891 44.0946582 54.21166992 44.96557617 C54.0682925 47.15792236 53.88431231 49.34165557 53.67993164 51.52905273 C53.57293945 52.74850586 53.46594727 53.96795898 53.35571289 55.22436523 C52.00049209 59.58464085 50.14641013 60.88473374 46.36743164 63.40405273 C43.39743164 64.72405273 40.42743164 66.04405273 37.36743164 67.40405273 C37.36743164 76.97405273 37.36743164 86.54405273 37.36743164 96.40405273 C38.02743164 96.40405273 38.68743164 96.40405273 39.36743164 96.40405273 C39.35583008 97.35924805 39.34422852 98.31444336 39.33227539 99.29858398 C39.27804003 107.06973574 39.46724598 114.67210088 40.36743164 122.40405273 C48.10092524 123.98990838 55.16019839 124.03398816 62.19433594 120.03540039 C69.52396064 114.74085949 74.83234532 108.65650488 76.34191895 99.61529541 C77.92798704 86.47764336 77.31889195 73.13523008 76.89483643 59.94299316 C76.77446597 55.53954289 76.74102668 51.13731122 76.71070766 46.73245621 C76.67048928 41.46090639 76.58192575 36.19051058 76.48852539 30.91967773 C76.4745767 29.92208687 76.46062801 28.924496 76.44625664 27.89667511 C76.39765492 25.07247781 76.31485651 22.25146897 76.22070312 19.4284668 C76.2104007 18.59934784 76.20009827 17.77022888 76.18948364 16.91598511 C76.02336724 13.0105328 75.58959835 10.11865724 73.29212952 6.88755798 C69.72941554 3.86228178 67.20088091 3.55617272 62.71899414 3.64355469 C61.96551697 3.63464706 61.21203979 3.62573944 60.43572998 3.61656189 C57.95374025 3.59531187 55.47435669 3.61756434 52.99243164 3.64233398 C51.262774 3.64083109 49.53311705 3.63739989 47.8034668 3.63212585 C44.18186494 3.6277968 40.56115426 3.64461332 36.93969727 3.67675781 C32.30220528 3.71653972 27.6663841 3.70723809 23.02883911 3.68252277 C19.45819451 3.6683265 15.88793888 3.67843668 12.31732178 3.69603539 C10.60773651 3.70187717 8.8981113 3.70059465 7.1885376 3.69201088 C4.79675134 3.68400077 2.40739673 3.70830338 0.01586914 3.74121094 C-0.68765686 3.73266083 -1.39118286 3.72411072 -2.11602783 3.71530151 C-5.68016306 3.7997619 -7.58838581 4.37416019 -10.55726624 6.3828125 Z M11.36743164 125.40405273 C13.20129087 129.07177119 14.61805993 130.8724027 17.49243164 133.65405273 C18.21688477 134.36045898 18.94133789 135.06686523 19.68774414 135.79467773 C20.24204102 136.32577148 20.79633789 136.85686523 21.36743164 137.40405273 C22.62769962 134.88351678 22.2861761 133.54984294 21.92993164 130.77905273 C21.74430664 129.33530273 21.55868164 127.89155273 21.36743164 126.40405273 C18.06743164 126.07405273 14.76743164 125.74405273 11.36743164 125.40405273 Z M41.36743164 126.40405273 C41.03743164 130.03405273 40.70743164 133.66405273 40.36743164 137.40405273 C46.10529424 132.65510616 46.10529424 132.65510616 51.36743164 127.40405273 C51.36743164 126.74405273 51.36743164 126.08405273 51.36743164 125.40405273 C47.95643996 125.40405273 44.7365485 125.89550679 41.36743164 126.40405273 Z M36.36743164 139.40405273 C36.03743164 139.73405273 35.70743164 140.06405273 35.36743164 140.40405273 C33.68134198 140.47610785 31.99242505 140.48791341 30.30493164 140.46655273 C29.38583008 140.4575293 28.46672852 140.44850586 27.51977539 140.43920898 C26.80950195 140.42760742 26.09922852 140.41600586 25.36743164 140.40405273 C27.01743164 142.38405273 28.66743164 144.36405273 30.36743164 146.40405273 C34.16264474 144.91307616 35.97785895 142.64704424 38.36743164 139.40405273 C37.70743164 139.40405273 37.04743164 139.40405273 36.36743164 139.40405273 Z " fill="#0D181B" transform="translate(224.632568359375,155.595947265625)"/>
<path d="M0 0 C0.79027588 0.00088623 1.58055176 0.00177246 2.39477539 0.00268555 C9.35124188 0.14334283 15.28670747 1.41426332 20.921875 5.69140625 C23.87621922 9.62141354 22.42547901 15.67875297 22.1875 20.375 C22.14496094 21.35694336 22.10242188 22.33888672 22.05859375 23.35058594 C21.90264739 26.69443584 21.70638573 30.03390577 21.5 33.375 C21.42036011 35.02266357 21.42036011 35.02266357 21.33911133 36.70361328 C20.77875206 44.57287476 20.77875206 44.57287476 17.8984375 48.48046875 C15.45737406 50.18639926 13.24745926 51.55399813 10.5 52.6875 C9.73300781 53.01363281 8.96601563 53.33976562 8.17578125 53.67578125 C6.1875 54.375 6.1875 54.375 4.1875 54.375 C3.8575 64.605 3.5275 74.835 3.1875 85.375 C1.2075 85.375 -0.7725 85.375 -2.8125 85.375 C-3.3075 70.03 -3.3075 70.03 -3.8125 54.375 C-6.7825 53.385 -9.7525 52.395 -12.8125 51.375 C-19.21430621 47.3400366 -19.21430621 47.3400366 -20.54248047 42.97705078 C-20.9580454 40.11686417 -21.144412 37.32561473 -21.25 34.4375 C-21.33701172 32.91020264 -21.33701172 32.91020264 -21.42578125 31.35205078 C-21.53418101 29.31019932 -21.62676361 27.26743976 -21.70263672 25.22412109 C-21.79948192 22.71260212 -21.95249133 20.2138928 -22.12890625 17.70703125 C-22.54770517 8.68057787 -22.54770517 8.68057787 -20.71484375 5.42578125 C-15.23439052 0.32530611 -7.09058019 -0.01428189 0 0 Z " fill="#EBD9BB" transform="translate(255.8125,166.625)"/>
<path d="M0 0 C0.75829605 -0.00365067 1.5165921 -0.00730133 2.29786682 -0.01106262 C4.79361659 -0.01914101 7.28871175 -0.00558478 9.78442383 0.0090332 C11.52126566 0.00955198 13.25810809 0.00903361 14.99494934 0.00752258 C18.62888389 0.00761217 22.26259598 0.01801779 25.89648438 0.03613281 C30.56073126 0.05887032 35.22465465 0.05935357 39.88894176 0.05261517 C43.47222281 0.04927946 47.05542968 0.05589688 50.63869667 0.0657444 C52.35914027 0.06959977 54.0795921 0.07074322 55.80003929 0.06915855 C58.19888525 0.06878899 60.59731077 0.08137553 62.99609375 0.09765625 C63.71040558 0.09517883 64.42471741 0.09270142 65.16067505 0.09014893 C70.07520631 0.14356568 70.07520631 0.14356568 72.30395508 2.37231445 C47.22395508 2.37231445 22.14395508 2.37231445 -3.69604492 2.37231445 C19.73395508 2.70231445 43.16395508 3.03231445 67.30395508 3.37231445 C67.30395508 3.70231445 67.30395508 4.03231445 67.30395508 4.37231445 C65.90787018 4.3777829 65.90787018 4.3777829 64.48358154 4.38336182 C55.71379682 4.42029778 46.94436369 4.47805482 38.17484665 4.55621719 C33.66627289 4.59573221 29.15789562 4.62790081 24.64916992 4.64331055 C20.29822472 4.65845083 15.94781955 4.69284898 11.59711456 4.74062347 C9.93698062 4.75546454 8.27676959 4.76335703 6.61656952 4.7641983 C4.29140095 4.76656164 1.96773253 4.79358702 -0.35717773 4.82641602 C-1.04410202 4.82138565 -1.73102631 4.81635529 -2.43876648 4.81117249 C-5.49993075 4.87807802 -7.48433492 5.24270136 -10.10948181 6.84986877 C-12.45880008 10.58500397 -12.3567927 13.93837375 -12.41992188 18.27734375 C-12.44781296 19.17721008 -12.47570404 20.07707642 -12.50444031 21.00421143 C-12.58841608 23.98497094 -12.63999733 26.96493234 -12.68432617 29.9465332 C-12.70187643 30.96973978 -12.71942669 31.99294636 -12.73750877 33.04715919 C-12.82683477 38.47425652 -12.88907881 43.90095817 -12.93164062 49.32861328 C-12.98121949 54.89699635 -13.12884186 60.45814997 -13.29952717 66.0239439 C-13.41253159 70.33535476 -13.44836892 74.64510568 -13.46471214 78.95786476 C-13.48584604 81.00693644 -13.53542667 83.05594476 -13.61571693 85.10355186 C-13.9577095 94.39670951 -14.07285629 102.11596523 -7.78939819 109.46646118 C-4.16921993 113.2408343 -0.31292693 116.67535558 3.77198505 119.93861103 C4.27753516 120.41173316 4.78308527 120.88485529 5.30395508 121.37231445 C5.30395508 122.03231445 5.30395508 122.69231445 5.30395508 123.37231445 C7.28395508 123.37231445 9.26395508 123.37231445 11.30395508 123.37231445 C10.97395508 124.36231445 10.64395508 125.35231445 10.30395508 126.37231445 C5.76153281 125.89197671 3.85293038 124.38052905 0.72973633 121.1184082 C-0.10235352 120.2644043 -0.93444336 119.41040039 -1.79174805 118.53051758 C-2.64704102 117.63268555 -3.50233398 116.73485352 -4.38354492 115.80981445 C-6.09136904 114.03342342 -7.80338941 112.26105384 -9.52026367 110.4934082 C-10.2739624 109.70377686 -11.02766113 108.91414551 -11.80419922 108.10058594 C-13.51507604 106.14749174 -13.51507604 106.14749174 -15.69604492 106.37231445 C-17.00441212 102.44721285 -16.86006736 98.69827016 -16.87304688 94.60571289 C-16.87961807 93.7094368 -16.88618927 92.81316071 -16.89295959 91.88972473 C-16.91268747 88.92037879 -16.92435431 85.95108343 -16.93432617 82.98168945 C-16.9384017 81.96714943 -16.94247723 80.95260941 -16.94667625 79.90732574 C-16.96753518 74.53709619 -16.98183747 69.16689217 -16.99121094 63.79663086 C-17.00227272 58.25386616 -17.03667067 52.7115032 -17.07638264 47.16888046 C-17.10254623 42.90343486 -17.11090258 38.63808501 -17.11449242 34.37256622 C-17.11935931 32.32966652 -17.13097619 30.28677113 -17.14953041 28.24394989 C-17.17391523 25.38114218 -17.17295789 22.51937422 -17.16601562 19.65649414 C-17.17882568 18.81675552 -17.19163574 17.97701691 -17.20483398 17.11183167 C-17.15442605 11.39285234 -16.10816557 8.01606592 -12.69604492 3.37231445 C-8.75308877 0.04585537 -4.96573507 -0.05359316 0 0 Z " fill="#393126" transform="translate(224.696044921875,155.627685546875)"/>
<path d="M0 0 C2.51572948 2.07547682 3.34509536 3.09598023 4.5 6.0625 C4.66699219 8.37402344 4.66699219 8.37402344 4.546875 10.921875 C4.5061084 11.86554932 4.4653418 12.80922363 4.42333984 13.78149414 C4.3661377 14.78172607 4.30893555 15.78195801 4.25 16.8125 C4.19408691 17.83786865 4.13817383 18.8632373 4.08056641 19.91967773 C3.90278037 22.96849379 3.70250608 26.01524139 3.5 29.0625 C3.45391602 29.90248535 3.40783203 30.7424707 3.36035156 31.60791016 C2.59184562 44.92213534 2.59184562 44.92213534 -1.5625 48.875 C-5.5 51.0625 -5.5 51.0625 -14.5 54.0625 C-14.5 63.6325 -14.5 73.2025 -14.5 83.0625 C-15.16 82.7325 -15.82 82.4025 -16.5 82.0625 C-16.71727572 78.13060858 -16.91408356 74.1982768 -17.09204102 70.2644043 C-17.18660785 68.26882631 -17.29732981 66.27403532 -17.40820312 64.27929688 C-17.46298828 63.02568359 -17.51777344 61.77207031 -17.57421875 60.48046875 C-17.63182373 59.32313232 -17.68942871 58.1657959 -17.7487793 56.97338867 C-17.5 54.0625 -17.5 54.0625 -16.14599609 52.24804688 C-14.0062652 50.70688205 -11.80504763 49.53610952 -9.4375 48.375 C-8.55964844 47.93800781 -7.68179688 47.50101563 -6.77734375 47.05078125 C-4.5 46.0625 -4.5 46.0625 -2.5 46.0625 C-1.52958746 43.15126237 -1.21688391 40.80245766 -0.96484375 37.7578125 C-0.87702637 36.7049707 -0.78920898 35.65212891 -0.69873047 34.56738281 C-0.35087716 30.06674618 -0.02332884 25.56506214 0.28466797 21.06152344 C0.46131455 18.60128919 0.67590756 16.15043053 0.91015625 13.6953125 C1.10628464 10.60718192 1.25012503 8.06300013 0.5 5.0625 C-3.10464577 1.03076349 -8.17200292 -0.66659743 -13.47949219 -1.09863281 C-15.73647667 -1.14447614 -17.99258963 -1.17274568 -20.25 -1.1875 C-21.0234375 -1.208125 -21.796875 -1.22875 -22.59375 -1.25 C-29.20667034 -1.29438202 -34.16267634 0.31487941 -39.9765625 3.359375 C-43.54724925 7.35121967 -41.77252345 14.95068141 -41.5 20.0625 C-41.46132812 21.01092773 -41.42265625 21.95935547 -41.3828125 22.93652344 C-41.24865374 26.02316143 -41.06814263 29.10402904 -40.875 32.1875 C-40.83036621 33.18297852 -40.78573242 34.17845703 -40.73974609 35.20410156 C-40.38393901 39.91874622 -40.12635459 42.33530814 -36.9765625 45.9921875 C-33.00282416 48.35857101 -28.72635295 50.18412091 -24.5 52.0625 C-24.83 62.2925 -25.16 72.5225 -25.5 83.0625 C-25.83 83.0625 -26.16 83.0625 -26.5 83.0625 C-26.5 73.4925 -26.5 63.9225 -26.5 54.0625 C-29.47 53.0725 -32.44 52.0825 -35.5 51.0625 C-40.50802627 48.35975567 -40.50802627 48.35975567 -42.5 45.0625 C-43.69173069 40.29003429 -44.08503711 35.60396358 -44.3515625 30.70166016 C-44.51471268 27.80091443 -44.74211535 24.90816435 -44.96875 22.01171875 C-45.10775823 19.945551 -45.24320853 17.87914063 -45.375 15.8125 C-45.44895996 14.82451416 -45.52291992 13.83652832 -45.59912109 12.81860352 C-45.95044233 5.85872607 -45.95044233 5.85872607 -43.78515625 2.03125 C-41.56910528 0.12203686 -39.75937538 -1.08444525 -37.0625 -2.1875 C-36.32128906 -2.50203125 -35.58007812 -2.8165625 -34.81640625 -3.140625 C-23.66497519 -6.97686773 -10.15101059 -6.17357135 0 0 Z " fill="#1A242A" transform="translate(276.5,168.9375)"/>
<path d="M0 0 C1.134375 0.020625 2.26875 0.04125 3.4375 0.0625 C3.46215746 4.1742256 3.48033959 8.28592278 3.49243164 12.39770508 C3.4974708 13.79745228 3.50430216 15.1971942 3.51293945 16.59692383 C3.5250232 18.60495777 3.53019807 20.61302957 3.53515625 22.62109375 C3.54301147 24.43565063 3.54301147 24.43565063 3.55102539 26.28686523 C3.4375 29.0625 3.4375 29.0625 2.4375 30.0625 C-2.09738372 30.29505814 -2.09738372 30.29505814 -4.5625 29.0625 C-5.635 29.289375 -6.7075 29.51625 -7.8125 29.75 C-12.50336584 30.14090549 -14.01456285 29.03286599 -17.5625 26.0625 C-20.25815272 22.01902092 -20.33908243 18.81097801 -19.5625 14.0625 C-18.23188 11.19335061 -17.08440637 10.20880329 -14.5625 8.0625 C-10.6079104 7.03976131 -8.43920727 6.77026424 -4.5625 8.0625 C-4.583125 6.928125 -4.60375 5.79375 -4.625 4.625 C-4.54525862 0.07974138 -4.54525862 0.07974138 0 0 Z M-9.5625 14.0625 C-11.8116908 15.88953227 -11.8116908 15.88953227 -11.8125 18.5625 C-11.8116908 21.23546773 -11.8116908 21.23546773 -9.5625 23.0625 C-6.95969432 22.74208603 -6.95969432 22.74208603 -4.5625 22.0625 C-3.77967352 20.27050528 -3.77967352 20.27050528 -3.5625 18.0625 C-4.70947958 15.75526643 -4.70947958 15.75526643 -6.5625 14.0625 C-7.5525 14.0625 -8.5425 14.0625 -9.5625 14.0625 Z " fill="#2A2A2B" transform="translate(240.5625,320.9375)"/>
<path d="M0 0 C3.3 0 6.6 0 10 0 C11.23791359 6.49733307 11.25820087 12.94437677 11.29516602 19.5324707 C11.30676601 20.97462716 11.32734225 22.41673809 11.35668945 23.85864258 C11.39920954 25.95162851 11.41550169 28.04335564 11.42578125 30.13671875 C11.44036377 31.38155029 11.45494629 32.62638184 11.4699707 33.90893555 C11 37 11 37 9.16870117 38.94067383 C6.11015282 40.43465574 4.21752885 39.90930163 1 39 C-1 37 -1 37 -1.24291992 34.13012695 C-1.23881104 32.92831787 -1.23470215 31.72650879 -1.23046875 30.48828125 C-1.22853516 29.17279297 -1.22660156 27.85730469 -1.22460938 26.50195312 C-1.21840576 25.81367432 -1.21220215 25.12539551 -1.20581055 24.41625977 C-1.18772131 22.33792655 -1.18529983 20.26004384 -1.18554688 18.18164062 C-1.16285884 12.02689937 -0.9775212 6.09378427 0 0 Z " fill="#B5BDC2" transform="translate(251,254)"/>
<path d="M0 0 C3.125 1.5 3.125 1.5 5 3 C4.49396008 5.16874252 4.00016187 6.99967627 3 9 C-0.63 8.34 -4.26 7.68 -8 7 C-7.15131774 9.25289685 -7.15131774 9.25289685 -4.56640625 9.96484375 C-2.5669217 10.61227113 -0.56692203 11.25810985 1.43359375 11.90234375 C4 13 4 13 6 16 C6.32625012 19.58875129 6.4759649 22.07312098 4.8125 25.3125 C2.01120283 27.92060426 -0.22799155 29 -4.11328125 29 C-9.00474335 28.60539465 -12.71619943 27.52634393 -17 25 C-16.42655063 22.13275314 -16.1385485 21.1385485 -14 19 C-12.3125 19.3125 -12.3125 19.3125 -10 20 C-7.66905466 20.3496418 -5.33595238 20.68554487 -3 21 C-3 20.34 -3 19.68 -3 19 C-4.15628906 18.61908203 -4.15628906 18.61908203 -5.3359375 18.23046875 C-6.33882813 17.88628906 -7.34171875 17.54210937 -8.375 17.1875 C-9.37273437 16.85105469 -10.37046875 16.51460938 -11.3984375 16.16796875 C-14 15 -14 15 -16 12 C-16.67092652 5.84984026 -16.67092652 5.84984026 -14.125 2.625 C-9.70202078 -0.75727823 -5.41410563 -0.50996285 0 0 Z " fill="#272728" transform="translate(271,322)"/>
<path d="M0 0 C0.83265381 0.00523682 1.66530762 0.01047363 2.52319336 0.01586914 C3.42231445 0.0190918 4.32143555 0.02231445 5.24780273 0.02563477 C6.66609375 0.03820312 6.66609375 0.03820312 8.11303711 0.05102539 C9.06243164 0.05553711 10.01182617 0.06004883 10.98999023 0.06469727 C13.34356776 0.07652429 15.69702188 0.09300514 18.05053711 0.11352539 C18.05053711 2.42352539 18.05053711 4.73352539 18.05053711 7.11352539 C13.43053711 7.11352539 8.81053711 7.11352539 4.05053711 7.11352539 C4.05053711 8.43352539 4.05053711 9.75352539 4.05053711 11.11352539 C4.74920898 11.10192383 5.44788086 11.09032227 6.16772461 11.07836914 C7.07780273 11.0693457 7.98788086 11.06032227 8.92553711 11.05102539 C9.83045898 11.03942383 10.73538086 11.02782227 11.66772461 11.01586914 C14.05053711 11.11352539 14.05053711 11.11352539 16.05053711 12.11352539 C16.05053711 14.09352539 16.05053711 16.07352539 16.05053711 18.11352539 C12.09053711 18.11352539 8.13053711 18.11352539 4.05053711 18.11352539 C4.07116211 19.74290039 4.09178711 21.37227539 4.11303711 23.05102539 C4.13439779 24.7385188 4.12259222 26.42743573 4.05053711 28.11352539 C3.05053711 29.11352539 3.05053711 29.11352539 0.55053711 29.23852539 C-1.94946289 29.11352539 -1.94946289 29.11352539 -2.94946289 28.11352539 C-3.04929347 26.12595511 -3.08027042 24.1348502 -3.08227539 22.14477539 C-3.08356445 20.9343457 -3.08485352 19.72391602 -3.08618164 18.47680664 C-3.08231445 17.20192383 -3.07844727 15.92704102 -3.07446289 14.61352539 C-3.07833008 13.33864258 -3.08219727 12.06375977 -3.08618164 10.75024414 C-3.08489258 9.53981445 -3.08360352 8.32938477 -3.08227539 7.08227539 C-3.08114746 5.96272461 -3.08001953 4.84317383 -3.07885742 3.68969727 C-2.90202164 0.16899688 -2.90202164 0.16899688 0 0 Z " fill="#323233" transform="translate(154.949462890625,321.886474609375)"/>
<path d="M0 0 C3.85190568 3.19626216 5.83162034 5.24885153 6.3125 10.25 C5.94328153 14.68062166 4.83161153 16.61779734 2 20 C-1.41457004 22.59036348 -4.83282171 22.43108741 -9 22 C-12.70390021 19.97333762 -14.65363011 18.51955484 -17 15 C-17.72022276 10.52791917 -17.58211165 7.01330547 -15.3125 3.0625 C-10.58496971 -1.15394593 -5.99738417 -1.91431656 0 0 Z M-8 6 C-10.33391203 8.78114056 -10.33391203 8.78114056 -9.625 11.6875 C-9.41875 12.450625 -9.2125 13.21375 -9 14 C-7.35 14.33 -5.7 14.66 -4 15 C-2.28184562 12.74832154 -2.28184562 12.74832154 -1 10 C-1.69140351 7.69712207 -1.69140351 7.69712207 -3 6 C-5.41619823 5.74969023 -5.41619823 5.74969023 -8 6 Z " fill="#2A2A2B" transform="translate(214,329)"/>
<path d="M0 0 C3.25070006 4.03897605 3.40387258 7.75875827 3.25 12.75 C3.24484375 13.43449219 3.2396875 14.11898438 3.234375 14.82421875 C3.15483526 19.84516474 3.15483526 19.84516474 2 21 C0.33391013 21.04384447 -1.33380554 21.0396713 -3 21 C-4.97960521 21 -6.95968466 21.04083765 -8.9375 21.125 C-11.97322529 21.00109285 -13.50191166 20.66539223 -16 19 C-17.42041821 16.15916359 -17.31452272 14.14522722 -17 11 C-15.5 8.625 -15.5 8.625 -13 7 C-10.24150058 6.67361266 -7.79515088 6.81365661 -5 7 C-5 6.34 -5 5.68 -5 5 C-9.455 5.495 -9.455 5.495 -14 6 C-14.66 4.35 -15.32 2.7 -16 1 C-10.55429357 -2.63047095 -5.99753082 -2.48954109 0 0 Z M-9 12 C-9 12.99 -9 13.98 -9 15 C-7.68 15 -6.36 15 -5 15 C-4.67 14.01 -4.34 13.02 -4 12 C-5.65 12 -7.3 12 -9 12 Z " fill="#2B2A2C" transform="translate(295,330)"/>
<path d="M0 0 C2.63763455 1.73528589 3.76117232 2.94146717 4.4609375 6.04296875 C4.7198598 8.01987551 4.86737502 10.0106253 5 12 C4.01 12.66 3.02 13.32 2 14 C2 14.66 2 15.32 2 16 C2.66 16 3.32 16 4 16 C3.04087458 18.39781354 2.41336039 19.73907186 0.19921875 21.13671875 C-3.60636836 22.63056378 -7.11723976 22.05893461 -11 21 C-14.59839526 18.45113669 -15.74939603 16.84578841 -17 12.625 C-17 8.20438091 -16.32020929 5.7703401 -14 2 C-9.09825233 -1.01646011 -5.53715283 -1.56711873 0 0 Z M-7.5625 6.5 C-8.036875 6.995 -8.51125 7.49 -9 8 C-6.69 8 -4.38 8 -2 8 C-2.97850195 6.97895449 -3.97980427 5.9793879 -5 5 C-6.24076302 4.88457803 -6.24076302 4.88457803 -7.5625 6.5 Z M-9 13 C-8.01 13.99 -7.02 14.98 -6 16 C-4.35 15.34 -2.7 14.68 -1 14 C-1 13.67 -1 13.34 -1 13 C-3.64 13 -6.28 13 -9 13 Z " fill="#1E1E1E" transform="translate(337,329)"/>
<path d="M0 0 C3.58259488 2.57012241 5.23805893 4.71205506 6 9 C6 13.3064427 5.77189158 14.78102913 3 18 C-0.02926599 20.49072981 -2.11904534 21.85317422 -6 22.5 C-10.6531644 21.7244726 -13.71618186 19.28381814 -17 16 C-17.71860037 11.27896269 -17.66241934 7.22292802 -15.375 3 C-10.51150955 -1.0955709 -6.08640609 -1.65992893 0 0 Z M-8 6 C-10.33391203 8.78114056 -10.33391203 8.78114056 -9.625 11.6875 C-9.41875 12.450625 -9.2125 13.21375 -9 14 C-6.60280568 14.67958603 -6.60280568 14.67958603 -4 15 C-1.7508092 13.17296773 -1.7508092 13.17296773 -1.75 10.5 C-1.7508092 7.82703227 -1.7508092 7.82703227 -4 6 C-5.32 6 -6.64 6 -8 6 Z " fill="#252426" transform="translate(190,329)"/>
<path d="M0 0 C9.78822836 -0.06962235 19.57639745 -0.12287333 29.36482334 -0.15543652 C33.91037834 -0.1710681 38.45576346 -0.19226041 43.0012207 -0.22631836 C47.39083963 -0.25900146 51.78029553 -0.27687187 56.17002678 -0.28463173 C57.84171043 -0.2901592 59.51338553 -0.30095301 61.18499947 -0.31719017 C63.53311314 -0.33908385 65.88055985 -0.34196201 68.22875977 -0.34057617 C68.91424896 -0.351362 69.59973816 -0.36214783 70.30599976 -0.3732605 C75.30534204 -0.34149759 78.65088121 0.69166108 83 3 C85.65644492 6.98466739 85.26493591 10.43778082 85.22705078 15.0612793 C85.22734283 15.98830658 85.22763489 16.91533386 85.22793579 17.87045288 C85.22654104 20.93846963 85.21097293 24.00624435 85.1953125 27.07421875 C85.19158289 29.19985318 85.18873567 31.32548933 85.18673706 33.4511261 C85.17909654 39.04892717 85.1594444 44.64662465 85.1373291 50.24438477 C85.11687973 55.95522663 85.10773729 61.66608521 85.09765625 67.37695312 C85.07619895 78.58468096 85.0420579 89.79233187 85 101 C84.67 101 84.34 101 84 101 C83.67 70.64 83.34 40.28 83 9 C82.34 9 81.68 9 81 9 C80.360625 8.195625 79.72125 7.39125 79.0625 6.5625 C77.18964068 3.76279268 77.18964068 3.76279268 74 3 C71.73165751 2.89184308 69.46030646 2.84375715 67.18945312 2.82641602 C66.50133041 2.819729 65.8132077 2.81304199 65.10423279 2.80615234 C63.61137147 2.79211433 62.11848884 2.7802163 60.62559509 2.77020454 C58.26370468 2.75378427 55.90197276 2.73054754 53.54016113 2.70530701 C46.82551978 2.6345489 40.11081499 2.57434224 33.39599609 2.52319336 C29.28813233 2.49142494 25.18045313 2.45015932 21.07273865 2.40299797 C19.5066611 2.38697007 17.94054107 2.37465213 16.37440491 2.36609077 C14.18626114 2.35395377 11.99855264 2.32981284 9.81054688 2.30297852 C8.56494995 2.29267105 7.31935303 2.28236359 6.03601074 2.27174377 C3 2 3 2 0 0 Z " fill="#080D10" transform="translate(218,157)"/>
<path d="M0 0 C2.64 0 5.28 0 8 0 C9.32 2.97 10.64 5.94 12 9 C13.32 6.03 14.64 3.06 16 0 C18.31 0 20.62 0 23 0 C22.29939522 4.47176135 20.75063283 8.51372315 19.0625 12.6875 C18.79759766 13.36361328 18.53269531 14.03972656 18.25976562 14.73632812 C17.10365511 17.6194325 16.21916405 19.78083595 14 22 C11.5625 22.4375 11.5625 22.4375 9 22 C6.21891821 18.10351107 4.55168786 13.73991403 2.8125 9.3125 C2.40354492 8.29833008 2.40354492 8.29833008 1.98632812 7.26367188 C0 2.26051457 0 2.26051457 0 0 Z " fill="#272728" transform="translate(298,329)"/>
<path d="M0 0 C0.66 0 1.32 0 2 0 C2 9.57 2 19.14 2 29 C3.98 29 5.96 29 8 29 C8 19.76 8 10.52 8 1 C8.33 1 8.66 1 9 1 C9.33 9.91 9.66 18.82 10 28 C10.99 28.33 11.98 28.66 13 29 C13.11157151 38.07448253 12.94242818 46.96278689 12 56 C11.67 56 11.34 56 11 56 C10.67 47.75 10.34 39.5 10 31 C6.7 31 3.4 31 0 31 C-0.33 39.58 -0.66 48.16 -1 57 C-1.33 57 -1.66 57 -2 57 C-3.3300103 48.02243049 -3.08788039 39.05168034 -3 30 C-2.01 29.67 -1.02 29.34 0 29 C0 19.43 0 9.86 0 0 Z " fill="#16191D" transform="translate(251,223)"/>
<path d="M0 0 C0 2.64 0 5.28 0 8 C-0.804375 8.12375 -1.60875 8.2475 -2.4375 8.375 C-3.283125 8.58125 -4.12875 8.7875 -5 9 C-6.64685461 12.29370921 -6.45394166 15.93002032 -6.71875 19.56640625 C-7 22 -7 22 -8 23 C-10.5 23.125 -10.5 23.125 -13 23 C-14 22 -14 22 -14.11352539 19.95874023 C-14.10828857 19.08419189 -14.10305176 18.20964355 -14.09765625 17.30859375 C-14.09443359 16.36435547 -14.09121094 15.42011719 -14.08789062 14.44726562 C-14.07951172 13.45404297 -14.07113281 12.46082031 -14.0625 11.4375 C-14.05798828 10.44041016 -14.05347656 9.44332031 -14.04882812 8.41601562 C-14.03700007 5.94395151 -14.02051849 3.47200482 -14 1 C-11.98177083 1.03255208 -9.96354167 1.06510417 -7.9453125 1.09765625 C-4.89335225 0.94444539 -3.35713138 0 0 0 Z " fill="#151515" transform="translate(358,328)"/>
<path d="M0 0 C0.33 0 0.66 0 1 0 C1.04631192 11.92621083 1.08186342 23.85240032 1.10362434 35.77868271 C1.11406775 41.3163546 1.12823718 46.85396504 1.15087891 52.39160156 C1.17258732 57.73432267 1.18456443 63.0769846 1.18975449 68.4197464 C1.19345383 70.45952537 1.20067759 72.49930105 1.21146011 74.53905487 C1.22594835 77.39297012 1.22797905 80.24663991 1.22705078 83.10058594 C1.23424133 83.94647278 1.24143188 84.79235962 1.24884033 85.66387939 C1.22387528 92.7429793 1.22387528 92.7429793 -1 96 C-3 94 -3 94 -3.21600342 90.36965942 C-3.21012369 88.77126928 -3.19285223 87.17289878 -3.16699219 85.57470703 C-3.16074326 84.7030188 -3.15449432 83.83133057 -3.14805603 82.93322754 C-3.12450833 80.04122676 -3.08612527 77.14963978 -3.046875 74.2578125 C-3.02578538 72.25243748 -3.00530581 70.24705595 -2.9854126 68.2416687 C-2.94133678 64.0332401 -2.88996014 59.82497931 -2.83349609 55.61669922 C-2.76166225 50.220728 -2.70762155 44.82475444 -2.65903854 39.42852974 C-2.61980564 35.28492906 -2.57122934 31.14147839 -2.51981354 26.99801254 C-2.49623489 25.0085149 -2.47554758 23.01898084 -2.45778656 21.02942276 C-2.43152576 18.24742545 -2.39272709 15.46587803 -2.35058594 12.68408203 C-2.34528366 11.86003876 -2.33998138 11.03599548 -2.33451843 10.1869812 C-2.26334789 6.33882464 -2.18798627 3.2598606 0 0 Z " fill="#242423" transform="translate(303,167)"/>
<path d="M0 0 C-0.99 0.66 -1.98 1.32 -3 2 C-4.01868662 2.98095748 -5.02351983 3.97702078 -6 5 C-3.08235 6.9451 -1.37462715 7.45276317 2 8 C2 8.33 2 8.66 2 9 C0.02 9.33 -1.96 9.66 -4 10 C-4 10.66 -4 11.32 -4 12 C-0.42355152 13.2380014 2.33694766 12.74926071 6 12 C6 12.66 6 13.32 6 14 C6.66 14 7.32 14 8 14 C7.04304112 16.39239719 6.41559872 17.73742129 4.20703125 19.1328125 C0.40610692 20.62627303 -3.14912422 20.22527866 -7 19 C-10.20748248 15.11214245 -10.5375327 10.95410406 -10.34765625 6.05859375 C-10 4 -10 4 -8.375 1.4375 C-5.40106977 -0.3625104 -3.41756151 -0.31068741 0 0 Z " fill="#2A2A2B" transform="translate(333,331)"/>
<path d="M0 0 C8 8 16 16 24 24 C24.99 23.67 25.98 23.34 27 23 C28.61042988 24.55604388 30.21309368 26.12012756 31.8125 27.6875 C32.70582031 28.55761719 33.59914062 29.42773438 34.51953125 30.32421875 C36.80555276 32.79024195 38.35388583 35.0905889 40 38 C40.86751704 39.1265503 41.76009975 40.23471052 42.6875 41.3125 C43.8321875 42.6428125 43.8321875 42.6428125 45 44 C42 44 42 44 39.5625 41.625 C38.2940625 40.325625 38.2940625 40.325625 37 39 C34.83379456 37.70480005 34.83379456 37.70480005 33 37 C33 36.34 33 35.68 33 35 C32.46375 34.79375 31.9275 34.5875 31.375 34.375 C28.08021991 32.46749574 25.40636372 29.95180616 23 27 C23 26.34 23 25.68 23 25 C22.34 25 21.68 25 21 25 C21 24.34 21 23.68 21 23 C20.34 23 19.68 23 19 23 C19 22.34 19 21.68 19 21 C18.34 21 17.68 21 17 21 C17 20.34 17 19.68 17 19 C16.34 19 15.68 19 15 19 C15 18.34 15 17.68 15 17 C14.34 17 13.68 17 13 17 C13 16.34 13 15.68 13 15 C12.34 15 11.68 15 11 15 C11 14.34 11 13.68 11 13 C10.34 13 9.68 13 9 13 C9 12.34 9 11.68 9 11 C8.34 11 7.68 11 7 11 C7 10.34 7 9.68 7 9 C6.34 9 5.68 9 5 9 C5 8.34 5 7.68 5 7 C4.34 7 3.68 7 3 7 C3 6.34 3 5.68 3 5 C2.34 5 1.68 5 1 5 C0.67 3.35 0.34 1.7 0 0 Z " fill="#141211" transform="translate(210,260)"/>
<path d="M0 0 C0.83265381 0.00523682 1.66530762 0.01047363 2.52319336 0.01586914 C3.42231445 0.0190918 4.32143555 0.02231445 5.24780273 0.02563477 C6.66609375 0.03820312 6.66609375 0.03820312 8.11303711 0.05102539 C9.06243164 0.05553711 10.01182617 0.06004883 10.98999023 0.06469727 C13.34356776 0.07652429 15.69702188 0.09300514 18.05053711 0.11352539 C18.05053711 2.42352539 18.05053711 4.73352539 18.05053711 7.11352539 C13.43053711 7.11352539 8.81053711 7.11352539 4.05053711 7.11352539 C4.05053711 8.43352539 4.05053711 9.75352539 4.05053711 11.11352539 C4.71053711 11.44352539 5.37053711 11.77352539 6.05053711 12.11352539 C4.73053711 12.11352539 3.41053711 12.11352539 2.05053711 12.11352539 C2.00799355 10.11397793 2.00972928 8.11310903 2.05053711 6.11352539 C3.05053711 5.11352539 3.05053711 5.11352539 5.99194336 5.01586914 C7.78438477 5.03327148 7.78438477 5.03327148 9.61303711 5.05102539 C11.4093457 5.06456055 11.4093457 5.06456055 13.24194336 5.07836914 C14.1687793 5.0899707 15.09561523 5.10157227 16.05053711 5.11352539 C16.05053711 4.12352539 16.05053711 3.13352539 16.05053711 2.11352539 C10.44053711 2.11352539 4.83053711 2.11352539 -0.94946289 2.11352539 C-0.94946289 10.03352539 -0.94946289 17.95352539 -0.94946289 26.11352539 C0.04053711 26.11352539 1.03053711 26.11352539 2.05053711 26.11352539 C2.05053711 23.47352539 2.05053711 20.83352539 2.05053711 18.11352539 C2.38053711 18.11352539 2.71053711 18.11352539 3.05053711 18.11352539 C3.10453447 19.57145423 3.14332888 21.02995251 3.17553711 22.48852539 C3.19874023 23.30063477 3.22194336 24.11274414 3.24584961 24.94946289 C3.05053711 27.11352539 3.05053711 27.11352539 1.05053711 29.11352539 C-1.07446289 28.73852539 -1.07446289 28.73852539 -2.94946289 28.11352539 C-2.97832628 23.63437211 -2.99621476 19.15524248 -3.01196289 14.67602539 C-3.0203418 13.39663086 -3.0287207 12.11723633 -3.03735352 10.79907227 C-3.04057617 9.58413086 -3.04379883 8.36918945 -3.04711914 7.11743164 C-3.05235596 5.99151611 -3.05759277 4.86560059 -3.06298828 3.70556641 C-2.90811026 0.16935144 -2.90811026 0.16935144 0 0 Z " fill="#09080A" transform="translate(154.949462890625,321.886474609375)"/>
<path d="M0 0 C0.66 0.66 1.32 1.32 2 2 C1.98252073 4.75589777 1.86136729 7.38786676 1.625 10.125 C1.56828125 10.87910156 1.5115625 11.63320313 1.453125 12.41015625 C1.3115535 14.27418096 1.15700041 16.13721137 1 18 C-0.32 17.67 -1.64 17.34 -3 17 C-3 15.02 -3 13.04 -3 11 C-5.31 10.67 -7.62 10.34 -10 10 C-10 9.67 -10 9.34 -10 9 C-6.535 8.505 -6.535 8.505 -3 8 C-3.66 6.68 -4.32 5.36 -5 4 C-7.64 4 -10.28 4 -13 4 C-13 3.34 -13 2.68 -13 2 C-13.66 1.34 -14.32 0.68 -15 0 C-9.19419875 -1.83341092 -5.85796007 -2.34318403 0 0 Z " fill="#29292A" transform="translate(295,330)"/>
<path d="M0 0 C3.24456307 6.48912614 3.9021259 14.76770257 3 22 C2.34 22.66 1.68 23.32 1 24 C0.34 24 -0.32 24 -1 24 C-1 21.03 -1 18.06 -1 15 C-2.423125 14.938125 -3.84625 14.87625 -5.3125 14.8125 C-6.11300781 14.77769531 -6.91351563 14.74289062 -7.73828125 14.70703125 C-10.47851584 15.06198392 -11.29171079 15.89366282 -13 18 C-13.66 17.34 -14.32 16.68 -15 16 C-14.67 15.01 -14.34 14.02 -14 13 C-14 13.66 -14 14.32 -14 15 C-13.34 15 -12.68 15 -12 15 C-12 14.34 -12 13.68 -12 13 C-13.65 12.67 -15.3 12.34 -17 12 C-17 11.67 -17 11.34 -17 11 C-11.39 11 -5.78 11 0 11 C0 7.37 0 3.74 0 0 Z " fill="#1C2029" transform="translate(247,267)"/>
<path d="M0 0 C0.66 0 1.32 0 2 0 C2.02685095 2.47923801 2.04676547 4.9581884 2.0625 7.4375 C2.07087891 8.14455078 2.07925781 8.85160156 2.08789062 9.58007812 C2.09653588 11.38693559 2.05220011 13.19387603 2 15 C1 16 1 16 -1.375 16.0625 C-2.24125 16.041875 -3.1075 16.02125 -4 16 C-4.99 16 -5.98 16 -7 16 C-8.32 16 -9.64 16 -11 16 C-11 15.34 -11 14.68 -11 14 C-10.01 13.67 -9.02 13.34 -8 13 C-9.65 12.01 -11.3 11.02 -13 10 C-12.125 6.125 -12.125 6.125 -11 5 C-8.66702567 4.95907063 -6.33294775 4.95758277 -4 5 C-3.31292445 7.49064888 -3 9.37886292 -3 12 C-2.01 12.33 -1.02 12.66 0 13 C0 8.71 0 4.42 0 0 Z M-10 7 C-10 7.99 -10 8.98 -10 10 C-8.68 10 -7.36 10 -6 10 C-5.67 9.01 -5.34 8.02 -5 7 C-6.65 7 -8.3 7 -10 7 Z " fill="#121112" transform="translate(296,335)"/>
<path d="M0 0 C0.99 0 1.98 0 3 0 C3 10.89 3 21.78 3 33 C2.01 33 1.02 33 0 33 C0 22.11 0 11.22 0 0 Z " fill="#0F1519" transform="translate(244,177)"/>
<path d="M0 0 C0.99 0 1.98 0 3 0 C3 10.89 3 21.78 3 33 C2.01 33 1.02 33 0 33 C0 22.11 0 11.22 0 0 Z " fill="#2A2A28" transform="translate(265,177)"/>
<path d="M0 0 C0.33 0 0.66 0 1 0 C1.33 8.91 1.66 17.82 2 27 C2.99 27.33 3.98 27.66 5 28 C5.11157151 37.07448253 4.94242818 45.96278689 4 55 C3.67 55 3.34 55 3 55 C2.67 46.75 2.34 38.5 2 30 C-1.3 30 -4.6 30 -8 30 C-7.34 29.34 -6.68 28.68 -6 28 C-4.02 28 -2.04 28 0 28 C0 18.76 0 9.52 0 0 Z " fill="#0E1115" transform="translate(259,224)"/>
<path d="M0 0 C0.33 0 0.66 0 1 0 C1.061875 1.2375 1.12375 2.475 1.1875 3.75 C1.61097646 7.06135069 1.91995882 7.90623747 4.1875 10.5625 C6.94680724 12.25214436 6.94680724 12.25214436 10.1875 11.9375 C13.29600708 11.22109171 13.29600708 11.22109171 15 8 C15.165 6.80375 15.33 5.6075 15.5 4.375 C15.665 3.26125 15.83 2.1475 16 1 C16.66 0.67 17.32 0.34 18 0 C18.77377754 10.93605588 18.77377754 10.93605588 16 14.75 C12.12272361 16.36553183 9.13139633 16.76630738 5 16 C2 14.75 2 14.75 0 12 C-0.41300474 7.96649916 -0.28580211 4.03933644 0 0 Z " fill="#0E0E0E" transform="translate(247,281)"/>
<path d="M0 0 C0.02465746 4.1117256 0.04283959 8.22342278 0.05493164 12.33520508 C0.0599708 13.73495228 0.06680216 15.1346942 0.07543945 16.53442383 C0.0875232 18.54245777 0.09269807 20.55052957 0.09765625 22.55859375 C0.10289307 23.76829834 0.10812988 24.97800293 0.11352539 26.22436523 C0 29 0 29 -1 30 C-4.20049657 30.17299981 -6.92954549 29.9097643 -10 29 C-9.505 27.515 -9.505 27.515 -9 26 C-8.01 25.67 -7.02 25.34 -6 25 C-4.68 25.66 -3.36 26.32 -2 27 C-2 18.75 -2 10.5 -2 2 C-2.99 2 -3.98 2 -5 2 C-5 4.97 -5 7.94 -5 11 C-5.33 11 -5.66 11 -6 11 C-6 7.7 -6 4.4 -6 1 C-1.125 0 -1.125 0 0 0 Z " fill="#070708" transform="translate(244,321)"/>
<path d="M0 0 C0.99 0 1.98 0 3 0 C5 2 5 2 5 5 C4.67 5.66 4.34 6.32 4 7 C4.66 7.33 5.32 7.66 6 8 C5.67 11.63 5.34 15.26 5 19 C4.01 19 3.02 19 2 19 C2.33 18.34 2.66 17.68 3 17 C2.01 17 1.02 17 0 17 C0 11.39 0 5.78 0 0 Z " fill="#2C2C2D" transform="translate(346,331)"/>
<path d="M0 0 C6.6 0 13.2 0 20 0 C20 2.31 20 4.62 20 7 C15.38 7 10.76 7 6 7 C6 8.32 6 9.64 6 11 C6.66 11.33 7.32 11.66 8 12 C6.68 12 5.36 12 4 12 C3.95745644 10.00045254 3.95919217 7.99958364 4 6 C5 5 5 5 7.94140625 4.90234375 C9.73384766 4.91974609 9.73384766 4.91974609 11.5625 4.9375 C13.35880859 4.95103516 13.35880859 4.95103516 15.19140625 4.96484375 C16.11824219 4.97644531 17.04507813 4.98804688 18 5 C18 3.68 18 2.36 18 1 C12.06 1 6.12 1 0 1 C0 0.67 0 0.34 0 0 Z " fill="#121113" transform="translate(153,322)"/>
<path d="M0 0 C0.66 0 1.32 0 2 0 C2 3.96 2 7.92 2 12 C4.97 12 7.94 12 11 12 C10.01 13.485 10.01 13.485 9 15 C5.875 15.1875 5.875 15.1875 3 15 C3 17.97 3 20.94 3 24 C2.67 24 2.34 24 2 24 C1.67 21.03 1.34 18.06 1 15 C0.67 17.31 0.34 19.62 0 22 C-0.33 22 -0.66 22 -1 22 C-1.14715692 14.6094524 -0.70776992 7.35575165 0 0 Z " fill="#313231" transform="translate(263,267)"/>
<path d="M0 0 C-1.48653506 3.46629835 -3.45722351 5.69022036 -6.1328125 8.328125 C-7.34130859 9.52695312 -7.34130859 9.52695312 -8.57421875 10.75 C-9.41597656 11.575 -10.25773437 12.4 -11.125 13.25 C-11.97449219 14.09046875 -12.82398438 14.9309375 -13.69921875 15.796875 C-15.79504923 17.86915683 -17.89540713 19.93662393 -20 22 C-20.66 21.67 -21.32 21.34 -22 21 C-22 20.01 -22 19.02 -22 18 C-20.68 18 -19.36 18 -18 18 C-17.73574219 17.4112207 -17.47148437 16.82244141 -17.19921875 16.21582031 C-15.95631056 13.91927416 -14.64993519 12.39166834 -12.8125 10.546875 C-12.19632812 9.928125 -11.58015625 9.309375 -10.9453125 8.671875 C-9.98238281 7.72054688 -9.98238281 7.72054688 -9 6.75 C-8.35804688 6.1003125 -7.71609375 5.450625 -7.0546875 4.78125 C-6.43851562 4.16765625 -5.82234375 3.5540625 -5.1875 2.921875 C-4.62417969 2.36081055 -4.06085938 1.79974609 -3.48046875 1.22167969 C-2 0 -2 0 0 0 Z " fill="#2F3130" transform="translate(300,261)"/>
<path d="M0 0 C0.66 0.33 1.32 0.66 2 1 C1.45276317 4.37462715 0.9451 6.08235 -1 9 C-5.53323928 11.74741775 -10.02300118 11.10017869 -15 10 C-18.5625 8.4375 -18.5625 8.4375 -21 7 C-20.01 6.01 -19.02 5.02 -18 4 C-17.67 4.474375 -17.34 4.94875 -17 5.4375 C-13.97607119 7.79994438 -10.7206951 7.98546603 -7 8 C-4.10977599 7.62896956 -4.10977599 7.62896956 -2 6 C-0.62810173 2.97017694 -0.62810173 2.97017694 0 0 Z " fill="#222122" transform="translate(275,340)"/>
<path d="M0 0 C0.91007813 0.00902344 1.82015625 0.01804688 2.7578125 0.02734375 C3.80582031 0.04474609 3.80582031 0.04474609 4.875 0.0625 C4.875 0.3925 4.875 0.7225 4.875 1.0625 C3.905625 1.18625 2.93625 1.31 1.9375 1.4375 C0.4215625 1.746875 0.4215625 1.746875 -1.125 2.0625 C-1.455 2.7225 -1.785 3.3825 -2.125 4.0625 C-3.2696875 4.743125 -3.2696875 4.743125 -4.4375 5.4375 C-7.10894547 7.05279261 -9.00709504 8.78771319 -11.125 11.0625 C-11.785 10.7325 -12.445 10.4025 -13.125 10.0625 C-12.65223148 5.80758335 -10.19952523 3.83707155 -7.125 1.0625 C-4.60024538 -0.19987731 -2.81299534 -0.03606404 0 0 Z " fill="#2C2523" transform="translate(222.125,155.9375)"/>
<path d="M0 0 C2.31 0.33 4.62 0.66 7 1 C5.68 1.33 4.36 1.66 3 2 C4.06740655 4.63253637 5.15271304 7.25494747 6.25 9.875 C6.55035156 10.62136719 6.85070312 11.36773437 7.16015625 12.13671875 C7.61455078 13.20986328 7.61455078 13.20986328 8.078125 14.3046875 C8.35043945 14.96452637 8.62275391 15.62436523 8.90332031 16.30419922 C10.28214304 18.43627906 11.68298607 19.05213066 14 20 C13.01 20 12.02 20 11 20 C11 20.66 11 21.32 11 22 C9.19921875 21.4921875 9.19921875 21.4921875 7 20 C5.75844049 17.35405351 4.74905796 14.87385843 3.8125 12.125 C3.55275391 11.40441406 3.29300781 10.68382812 3.02539062 9.94140625 C1.85323822 6.65211036 0.8116869 3.39843836 0 0 Z " fill="#161616" transform="translate(298,329)"/>
<path d="M0 0 C4.03082 1.612328 6.75944137 4.46234596 9.75 7.5 C10.25660156 7.99886719 10.76320312 8.49773437 11.28515625 9.01171875 C15 12.74658861 15 12.74658861 15 15 C16.98 15 18.96 15 21 15 C20.67 15.99 20.34 16.98 20 18 C16.00089083 17.48216387 14.0533719 16.55282929 11.23046875 13.69140625 C10.56982422 13.02689453 9.90917969 12.36238281 9.22851562 11.67773438 C8.55498047 10.97970703 7.88144531 10.28167969 7.1875 9.5625 C6.49462891 8.86833984 5.80175781 8.17417969 5.08789062 7.45898438 C0 2.28086515 0 2.28086515 0 0 Z " fill="#343430" transform="translate(215,264)"/>
<path d="M0 0 C5.61 0 11.22 0 17 0 C15.68 0.33 14.36 0.66 13 1 C13.2475 1.7425 13.495 2.485 13.75 3.25 C14 6 14 6 12.1875 8.3125 C10 10 10 10 8 10 C8.61277612 7.03824877 9.25372522 5.61941217 11 3 C10.46375 3.185625 9.9275 3.37125 9.375 3.5625 C6.38009386 4.11419324 3.96254171 3.60597444 1 3 C0.67 2.01 0.34 1.02 0 0 Z " fill="#161B26" transform="translate(265,278)"/>
<path d="M0 0 C3 0.9375 3 0.9375 4.9375 2.625 C6.39615475 5.79971916 6.00471852 7.63628201 5 10.9375 C1.77208445 13.0894437 0.71599191 13.13836443 -3 12.9375 C-1.68 12.6075 -0.36 12.2775 1 11.9375 C1 11.2775 1 10.6175 1 9.9375 C1.66 9.9375 2.32 9.9375 3 9.9375 C2.67 7.9575 2.34 5.9775 2 3.9375 C0.68 3.6075 -0.64 3.2775 -2 2.9375 C-2.99 4.4225 -2.99 4.4225 -4 5.9375 C-4.66 5.9375 -5.32 5.9375 -6 5.9375 C-6.33 6.5975 -6.66 7.2575 -7 7.9375 C-6.64301497 5.29581079 -6.247692 3.32859264 -4.8125 1.0625 C-3 -0.0625 -3 -0.0625 0 0 Z " fill="#121212" transform="translate(233,333.0625)"/>
<path d="M0 0 C0.99 0 1.98 0 3 0 C2.49396008 2.16874252 2.00016187 3.99967627 1 6 C-2.63 5.34 -6.26 4.68 -10 4 C-9.04134491 6.33075929 -9.04134491 6.33075929 -6 8 C-7.875 8.625 -7.875 8.625 -10 9 C-10.66 8.34 -11.32 7.68 -12 7 C-11.625 4.375 -11.625 4.375 -11 2 C-6.99799622 0.39919849 -3.95443764 1.70720308 0 3 C0 2.01 0 1.02 0 0 Z " fill="#171719" transform="translate(273,325)"/>
<path d="M0 0 C0.33 0.66 0.66 1.32 1 2 C1.66 2 2.32 2 3 2 C2.05275873 4.36810318 1.34708866 5.75207953 -0.75 7.25 C-3.61072512 8.20357504 -6.00308693 8.19545085 -9 8 C-9.66 7.67 -10.32 7.34 -11 7 C-11 6.34 -11 5.68 -11 5 C-8.03 5.495 -8.03 5.495 -5 6 C-5 5.34 -5 4.68 -5 4 C-5.66 3.67 -6.32 3.34 -7 3 C-4.69 2.01 -2.38 1.02 0 0 Z " fill="#1B1C1C" transform="translate(338,343)"/>
<path d="M0 0 C2.625 0.375 2.625 0.375 5 1 C5.625 3.375 5.625 3.375 6 6 C5.34 6.66 4.68 7.32 4 8 C1.375 7.625 1.375 7.625 -1 7 C-1.625 4.625 -1.625 4.625 -2 2 C-1.34 1.34 -0.68 0.68 0 0 Z " fill="#121314" transform="translate(254,283)"/>
<path d="M0 0 C0.99 0.66 1.98 1.32 3 2 C2.01 2.7734375 2.01 2.7734375 1 3.5625 C-1.30771734 5.93302698 -1.30771734 5.93302698 -1.4375 9.5 C-0.98402407 13.12780748 -0.53973107 14.46026893 2 17 C2.99 17.66 3.98 18.32 5 19 C2.75 19.3125 2.75 19.3125 0 19 C-2.56638215 16.84978793 -3.79103188 15.16726637 -4.38671875 11.83984375 C-4.59055695 7.62953049 -4.35264989 5.53999515 -2 1.9375 C-1.34 1.298125 -0.68 0.65875 0 0 Z " fill="#121112" transform="translate(201,330)"/>
<path d="M0 0 C3.24456307 6.48912614 3.9021259 14.76770257 3 22 C2.34 22.66 1.68 23.32 1 24 C1 20.7 1 17.4 1 14 C0.34 14 -0.32 14 -1 14 C-0.67 9.38 -0.34 4.76 0 0 Z " fill="#313433" transform="translate(247,267)"/>
<path d="M0 0 C1.32 0.33 2.64 0.66 4 1 C3.67 1.66 3.34 2.32 3 3 C3.66 2.67 4.32 2.34 5 2 C7.9375 1.625 7.9375 1.625 11 2 C12.875 4.5 12.875 4.5 14 7 C13 8 13 8 11.15234375 8.09765625 C9.1015625 8.06510417 7.05078125 8.03255208 5 8 C5 7.67 5 7.34 5 7 C6.98 7 8.96 7 11 7 C11 6.01 11 5.02 11 4 C6.545 4.495 6.545 4.495 2 5 C1.34 3.35 0.68 1.7 0 0 Z " fill="#0D0C0D" transform="translate(279,331)"/>
<path d="M0 0 C0.66 0 1.32 0 2 0 C2.33 1.98 2.66 3.96 3 6 C3.68707031 6.18175781 4.37414062 6.36351562 5.08203125 6.55078125 C5.98308594 6.80214844 6.88414062 7.05351562 7.8125 7.3125 C8.70582031 7.55613281 9.59914063 7.79976563 10.51953125 8.05078125 C13.05247738 9.0200819 14.2716496 9.95009604 16 12 C14.41532272 11.71572583 12.8322943 11.42225182 11.25 11.125 C10.36828125 10.96257812 9.4865625 10.80015625 8.578125 10.6328125 C4.28678678 9.57948403 2.49142269 8.73713403 0 5 C-0.125 2.3125 -0.125 2.3125 0 0 Z " fill="#0A090A" transform="translate(255,329)"/>
<path d="M0 0 C0.33 0 0.66 0 1 0 C1.88021369 6.71162938 2.11381955 13.23405981 2 20 C1.34 20.33 0.68 20.66 0 21 C-1.97636787 14.17682521 -1.20194795 6.91120071 0 0 Z " fill="#141B20" transform="translate(234,192)"/>
<path d="M0 0 C0 1.98 0 3.96 0 6 C-3.63 6 -7.26 6 -11 6 C-11.33 5.34 -11.66 4.68 -12 4 C-8.7 4 -5.4 4 -2 4 C-2 3.34 -2 2.68 -2 2 C-5.3 2 -8.6 2 -12 2 C-12 1.67 -12 1.34 -12 1 C-10.37512529 0.83211627 -8.75009558 0.66573213 -7.125 0.5 C-6.22007812 0.4071875 -5.31515625 0.314375 -4.3828125 0.21875 C-2 0 -2 0 0 0 Z " fill="#060606" transform="translate(171,334)"/>
<path d="M0 0 C1.8125 1.5 1.8125 1.5 3 3 C2.67 3.99 2.34 4.98 2 6 C1.34 4.68 0.68 3.36 0 2 C-1.65 2.33 -3.3 2.66 -5 3 C-5.66 5.64 -6.32 8.28 -7 11 C-7.66 10.34 -8.32 9.68 -9 9 C-8.80274374 5.90965193 -8.48118402 3.72177603 -6.75 1.125 C-4.32392716 -0.43461825 -2.83004474 -0.42450671 0 0 Z " fill="#0D0D0D" transform="translate(211,333)"/>
<path d="M0 0 C0.33 0 0.66 0 1 0 C1 3.96 1 7.92 1 12 C-4 14 -4 14 -7 13 C-6.195625 12.319375 -5.39125 11.63875 -4.5625 10.9375 C-1.56349095 7.49961158 -1.343212 5.46175596 -1 1 C-0.67 0.67 -0.34 0.34 0 0 Z " fill="#121314" transform="translate(264,281)"/>
<path d="M0 0 C0.66 0 1.32 0 2 0 C1.67 1.65 1.34 3.3 1 5 C-3.95346987 6.59789351 -8.13282415 5.28306814 -13 4 C-13 3.67 -13 3.34 -13 3 C-8.71 3 -4.42 3 0 3 C0 2.01 0 1.02 0 0 Z " fill="#040405" transform="translate(340,337)"/>
<path d="M0 0 C0.3125 2.8125 0.3125 2.8125 0 6 C-2.38892501 7.88599343 -3.91851558 9 -7 9 C-6.690625 8.236875 -6.38125 7.47375 -6.0625 6.6875 C-5.32106407 4.81210323 -4.63771783 2.91315348 -4 1 C-1 0 -1 0 0 0 Z " fill="#181719" transform="translate(357,329)"/>
<path d="M0 0 C1.32 0.33 2.64 0.66 4 1 C3.0409375 1.7734375 3.0409375 1.7734375 2.0625 2.5625 C-0.55791681 5.65935623 -0.69389817 8.02067623 -1 12 C-1.66 12 -2.32 12 -3 12 C-3.36923077 4.61538462 -3.36923077 4.61538462 -1.5 1.5 C-1.005 1.005 -0.51 0.51 0 0 Z " fill="#151415" transform="translate(176,331)"/>
<path d="M0 0 C3 1 3 1 5 4 C4.96856707 6.73990408 4.44521663 9.28417854 4 12 C3.67 12 3.34 12 3 12 C3 10.35 3 8.7 3 7 C2.34 7 1.68 7 1 7 C-0.0625 5.1875 -0.0625 5.1875 -1 3 C-0.67 2.01 -0.34 1.02 0 0 Z " fill="#282720" transform="translate(298,159)"/>
<path d="M0 0 C0.928125 0.20625 1.85625 0.4125 2.8125 0.625 C2.8125 0.955 2.8125 1.285 2.8125 1.625 C1.4203125 1.686875 1.4203125 1.686875 0 1.75 C-3.47697638 2.31359031 -3.47697638 2.31359031 -5.0625 5.6875 C-5.43375 6.656875 -5.805 7.62625 -6.1875 8.625 C-6.5175 8.625 -6.8475 8.625 -7.1875 8.625 C-6.875 5.25 -6.875 5.25 -6.1875 1.625 C-3.1875 -0.375 -3.1875 -0.375 0 0 Z " fill="#0C0B0C" transform="translate(185.1875,333.375)"/>
<path d="M0 0 C1.32 0 2.64 0 4 0 C7.26204794 3.8445565 7.28855285 7.0946016 7 12 C5 11 5 11 4.21875 9.00390625 C3.9815625 8.19824219 3.744375 7.39257812 3.5 6.5625 C2.42683488 2.90617965 2.42683488 2.90617965 0 0 Z " fill="#111212" transform="translate(213,331)"/>
<path d="M0 0 C2.94956528 1.36944102 5.52468811 2.87830409 8 5 C8 5.66 8 6.32 8 7 C4.32579134 6.69381595 3.21864487 6.24228216 0.6875 3.4375 C0.130625 2.633125 -0.42625 1.82875 -1 1 C-0.67 0.67 -0.34 0.34 0 0 Z " fill="#22242B" transform="translate(235,212)"/>
<path d="M0 0 C0 0.33 0 0.66 0 1 C-3.96 1.66 -7.92 2.32 -12 3 C-12.33 2.34 -12.66 1.68 -13 1 C-8.31506124 -1.48887372 -5.0555786 -0.85687773 0 0 Z " fill="#111922" transform="translate(252,166)"/>
<path d="M0 0 C0.99 0 1.98 0 3 0 C2.49396008 2.16874252 2.00016187 3.99967627 1 6 C-1.375 5.6875 -1.375 5.6875 -4 5 C-4.66 4.01 -5.32 3.02 -6 2 C-3.03 2.495 -3.03 2.495 0 3 C0 2.01 0 1.02 0 0 Z " fill="#121112" transform="translate(273,325)"/>
<path d="M0 0 C0.53625 0.61875 1.0725 1.2375 1.625 1.875 C4.31103023 4.2782902 6.55414562 5.06022153 10 6 C10 6.66 10 7.32 10 8 C5.87240487 7.5309551 2.94713214 7.06048338 0 4 C0 2.68 0 1.36 0 0 Z " fill="#131112" transform="translate(223,343)"/>
<path d="M0 0 C2.00720923 0.28674418 4.0085944 0.61866701 6 1 C5.01 2.485 5.01 2.485 4 4 C4 3.34 4 2.68 4 2 C3.01 2 2.02 2 1 2 C0.34 4.31 -0.32 6.62 -1 9 C-1.66 8.67 -2.32 8.34 -3 8 C-1.125 1.125 -1.125 1.125 0 0 Z " fill="#121113" transform="translate(314,329)"/>
<path d="M0 0 C0.53625 0.37125 1.0725 0.7425 1.625 1.125 C1.625 1.455 1.625 1.785 1.625 2.125 C0.68527344 2.32416016 0.68527344 2.32416016 -0.2734375 2.52734375 C-1.49933594 2.79224609 -1.49933594 2.79224609 -2.75 3.0625 C-3.56210938 3.23652344 -4.37421875 3.41054688 -5.2109375 3.58984375 C-7.404463 4.04830693 -7.404463 4.04830693 -9.375 5.125 C-9.25 3.25 -9.25 3.25 -8.375 1.125 C-5.17736297 -0.43828922 -3.40862085 -1.25580768 0 0 Z " fill="#181819" transform="translate(233.375,328.875)"/>
<path d="M0 0 C0.99 0.33 1.98 0.66 3 1 C1.09598862 2.90401138 -0.33425686 3.93520439 -3.046875 4.19921875 C-5.03233273 4.1886578 -7.0169914 4.09915043 -9 4 C-9 3.34 -9 2.68 -9 2 C-6.94921875 1.77213542 -4.8984375 1.54427083 -2.84765625 1.31640625 C-0.98859771 1.18113386 -0.98859771 1.18113386 0 0 Z " fill="#070809" transform="translate(261,293)"/>
<path d="M0 0 C1.65 0 3.3 0 5 0 C5 1.65 5 3.3 5 5 C4.01 5.33 3.02 5.66 2 6 C1.34 5.34 0.68 4.68 0 4 C0 2.68 0 1.36 0 0 Z " fill="#515254" transform="translate(252,285)"/>
<path d="M0 0 C0.66 0.33 1.32 0.66 2 1 C1.45276317 4.37462715 0.9451 6.08235 -1 9 C-3.625 9.1875 -3.625 9.1875 -6 9 C-4.7934375 7.88625 -4.7934375 7.88625 -3.5625 6.75 C-1.23011409 4.24695171 -0.36465606 3.2819045 0 0 Z " fill="#0F0E0F" transform="translate(275,340)"/>
<path d="M0 0 C0.66 0 1.32 0 2 0 C0.125 3.875 0.125 3.875 -1 5 C-2.99958364 5.04080783 -5.00045254 5.04254356 -7 5 C-7.33 4.34 -7.66 3.68 -8 3 C-6.865625 2.690625 -5.73125 2.38125 -4.5625 2.0625 C-1.21224901 1.37075469 -1.21224901 1.37075469 0 0 Z " fill="#171717" transform="translate(188,341)"/>
<path d="M0 0 C0.33 0.99 0.66 1.98 1 3 C2.65 3 4.3 3 6 3 C6 3.66 6 4.32 6 5 C2.80097361 5.08886184 0.07322544 4.91058531 -3 4 C-2.67 3.01 -2.34 2.02 -2 1 C-1.34 0.67 -0.68 0.34 0 0 Z " fill="#1A1A1B" transform="translate(237,346)"/>
<path d="M0 0 C0.94875 0.04125 1.8975 0.0825 2.875 0.125 C1.60634318 2.66231364 0.37790879 2.91146846 -2.125 4.125 C-2.785 4.785 -3.445 5.445 -4.125 6.125 C-4.75 4.25 -4.75 4.25 -5.125 2.125 C-3.125 0.125 -3.125 0.125 0 0 Z " fill="#090909" transform="translate(288.125,339.875)"/>
<path d="M0 0 C2.4375 1.1875 2.4375 1.1875 3.4375 3.1875 C2.715625 2.98125 1.99375 2.775 1.25 2.5625 C-2.00891585 2.12797789 -3.64554504 2.77069331 -6.5625 4.1875 C-4.08624398 -1.29563833 -4.08624398 -1.29563833 0 0 Z " fill="#0A0A0B" transform="translate(332.5625,332.8125)"/>
<path d="M0 0 C0.66 0.33 1.32 0.66 2 1 C1.1875 4.4375 1.1875 4.4375 0 8 C-0.99 8.33 -1.98 8.66 -3 9 C-2.01 6.03 -1.02 3.06 0 0 Z " fill="#111112" transform="translate(317,334)"/>
<path d="M0 0 C0.268125 0.598125 0.53625 1.19625 0.8125 1.8125 C1.98493467 3.97224808 3.19369282 5.35790256 5 7 C3.35 7 1.7 7 0 7 C-0.38133299 5.0085944 -0.71325582 3.00720923 -1 1 C-0.67 0.67 -0.34 0.34 0 0 Z " fill="#0B0B0C" transform="translate(279,342)"/>
<path d="M0 0 C1.8871875 0.061875 1.8871875 0.061875 3.8125 0.125 C3.8125 0.455 3.8125 0.785 3.8125 1.125 C1.8325 1.125 -0.1475 1.125 -2.1875 1.125 C-2.1875 1.785 -2.1875 2.445 -2.1875 3.125 C-3.8375 3.455 -5.4875 3.785 -7.1875 4.125 C-7.1875 3.465 -7.1875 2.805 -7.1875 2.125 C-4.09861478 0.06574319 -3.47814073 -0.1140374 0 0 Z " fill="#1E1E1E" transform="translate(286.1875,336.875)"/>
<path d="M0 0 C0.66 0.99 1.32 1.98 2 3 C0.35 4.32 -1.3 5.64 -3 7 C-3.33 6.01 -3.66 5.02 -4 4 C-2.68 2.68 -1.36 1.36 0 0 Z " fill="#222323" transform="translate(272,286)"/>
<path d="M0 0 C0.33 0.99 0.66 1.98 1 3 C-0.32 4.32 -1.64 5.64 -3 7 C-3.99 6.67 -4.98 6.34 -6 6 C-5.195625 5.38125 -4.39125 4.7625 -3.5625 4.125 C-0.96125481 2.25835959 -0.96125481 2.25835959 0 0 Z " fill="#101011" transform="translate(217,343)"/>
<path d="M0 0 C0.33 0.66 0.66 1.32 1 2 C1.66 2 2.32 2 3 2 C2.34 3.32 1.68 4.64 1 6 C-0.32 5.67 -1.64 5.34 -3 5 C-2.01 4.01 -1.02 3.02 0 2 C-0.66 1.67 -1.32 1.34 -2 1 C-1.34 0.67 -0.68 0.34 0 0 Z " fill="#0E0E0E" transform="translate(338,343)"/>
<path d="M0 0 C0.598125 0.45375 1.19625 0.9075 1.8125 1.375 C3.50590652 2.63295913 5.24477086 3.82984724 7 5 C1.46153846 5.36923077 1.46153846 5.36923077 -0.875 3.5 C-1.24625 3.005 -1.6175 2.51 -2 2 C-1.34 1.34 -0.68 0.68 0 0 Z " fill="#0D0C0D" transform="translate(256,344)"/>
<path d="M0 0 C2.31 0.33 4.62 0.66 7 1 C5.68 1.33 4.36 1.66 3 2 C3.33 3.32 3.66 4.64 4 6 C3.34 6 2.68 6 2 6 C1.34 4.02 0.68 2.04 0 0 Z " fill="#0F0C0E" transform="translate(298,329)"/>
</svg>
